<svg xmlns="http://www.w3.org/2000/svg" width="339.667" height="111.937" viewBox="-155.834 -51.355 339.667 111.937" enable-background="new -155.834 -51.355 339.667 111.937"><rect x="-155.834" y="-51.355" fill="none" width="339.669" height="111.937"/><path d="M-112.94 53.141h-1.476c-.121-.004-.329-.051-.348-.345-.363-5.166-4.679-9.211-9.832-9.211-5.146 0-9.47 4.045-9.831 9.206-.021.296-.224.346-.346.35h-1.478c-.673 0-.724-.864-.724-1.122v-13.086c0-.66.56-1.22 1.227-1.22h22.299c.664 0 1.23.56 1.23 1.22v13.086c.003.259-.05 1.122-.721 1.122zm-6.129.328c0-3.033-2.479-5.498-5.523-5.498-3.046 0-5.529 2.465-5.529 5.498 0 3.026 2.479 5.495 5.529 5.495 3.045 0 5.523-2.469 5.523-5.495zm21.946-8.975v-5.803c0-1-.816-1.812-1.819-1.812h-3.517c-.994 0-1.802.812-1.802 1.812v3.031c0 1.354-1.104 2.454-2.465 2.454h-1.841v2.133h9.625c1.004.001 1.819-.815 1.819-1.815zm-43.944 13.69v-26.074c0-.269-.086-.358-.346-.358-1.043 0-1.891.895-1.891 1.995 0 .183.032.366.108.628l1.411 7.575-.281.085c-.173.05-.299.099-.382.137-1.119.634-1.815 1.81-1.815 3.073 0 1.27.675 2.423 1.812 3.07.09.051.271.104.394.142l.274.09-1.422 7.607c-.068.224-.099.407-.099.594 0 1.099.848 1.992 1.891 1.992.195 0 .346 0 .346-.556zm26.503-82.396l9.982 5.991 8.997-5.397c-1.115-12.123-9.375-26.176-29.069-26.176-18.477 0-27.939 13.526-28.957 26.172l9 5.401 9.987-5.991 10.031 5.993 10.029-5.993zm19.374 6.478c-.333 3.359-1.192 6.6-2.566 9.648-.684 1.528-1.499 3.036-2.427 4.49l-21.335 37.559h-6.149l-21.339-37.559c-.963-1.508-1.775-3.016-2.429-4.49-1.364-3.08-2.227-6.326-2.559-9.648l9.383 5.633 9.987-5.981 10.031 5.981 10.032-5.981 9.98 5.981 9.391-5.633zm-14.183 24.73c-5.52 4.489-11.074 7.207-13.703 8.358-.724.325-1.227.527-1.458.603l-.063.025-.062-.025c-.231-.076-.726-.278-1.451-.603-2.638-1.151-8.201-3.876-13.713-8.369l13.648 24.025h3.154l13.648-24.014zm287.976 9.404l-14.446-16.091v13.269l3.544 1.099v1.362h-8.384v-1.402l2.801-.749v-16.054l-2.92-1.185v-1.359h5.334l13.064 14.667v-12.123l-3.584-1.225v-1.319h8.383v1.363l-2.757.827v15.215l.119 3.295-1.154.41zm-81.382-10.873c0-3.163-1.032-5.878-2.999-7.842-1.945-1.957-4.615-2.985-7.712-2.985-6.229 0-10.743 4.769-10.743 11.339 0 3.147 1.032 5.839 2.999 7.792 1.952 1.936 4.626 2.959 7.744 2.959 6.207 0 10.711-4.735 10.711-11.263zm-6.026-6.153c1.328 1.909 2.061 4.515 2.061 7.337 0 6.156-3.061 8.351-5.922 8.351-2.476 0-4.518-1.225-5.907-3.551-1.123-1.887-1.772-4.44-1.772-7.004 0-5.052 2.346-8.197 6.106-8.197 2.135-.004 4.066 1.085 5.434 3.064zm47.502 6.153c0-3.163-1.036-5.878-3.003-7.842-1.941-1.957-4.615-2.984-7.712-2.984-6.225 0-10.739 4.769-10.739 11.339 0 3.147 1.032 5.839 3.003 7.792 1.948 1.936 4.626 2.959 7.736 2.959 6.215-.001 10.715-4.736 10.715-11.264zm-6.024-6.153c1.328 1.909 2.058 4.515 2.058 7.337 0 6.156-3.057 8.351-5.919 8.351-2.476 0-4.521-1.225-5.907-3.551-1.122-1.887-1.771-4.44-1.771-7.004 0-5.052 2.342-8.197 6.109-8.197 2.125-.004 4.056 1.085 5.43 3.064zm-77.851 9.35h-1.281l-3.075 5.51h-7.069v-16.79l3.392-.79v-1.363h-9.769v1.363l2.797.827v16.406l-2.797.749v1.402h16.492l1.31-7.314zm-38.185 0h-1.285l-3.076 5.51h-7.068v-16.79l3.389-.79v-1.363h-9.766v1.363l2.795.827v16.406l-2.795.75v1.4h16.49l1.316-7.313zm-39.634.036c0-2.194-.917-3.921-2.719-5.13-1.524-1.02-3.65-1.629-6.144-1.759v-.015c2.854-.262 7.598-1.417 7.598-6.174 0-3.917-3.54-5.987-10.245-5.987l-.383.004-9.134.117v1.324l3.349 1.026v21.606l-3.349.902v1.364l9.682.155.403.003c6.747.005 10.942-2.845 10.942-7.436zm-9.852-5.758c3.608.615 5.759 2.885 5.759 6.068 0 3.701-2.834 5.639-5.635 5.639-1.949 0-3.506-.716-4.06-1.854v-9.853h3.936zm-3.567-11.897c5.532 0 8.224 1.639 8.224 5.011 0 4.562-4.894 5.155-8.594 5.198v-10.205l.37-.004z" fill="#fff"/></svg>